<mxfile host="Electron" modified="2025-05-29T20:25:14.261Z" agent="Mozilla/5.0 (Windows NT 10.0; Win64; x64) AppleWebKit/537.36 (KHTML, like Gecko) draw.io/24.5.1 Chrome/124.0.6367.207 Electron/30.0.6 Safari/537.36" etag="Mt6cSnBeeJp9v4VRvdUT" version="24.5.1" type="device">
  <diagram name="Page-1" id="eCzUnoDatS1O--RDcJba">
    <mxGraphModel dx="710" dy="690" grid="1" gridSize="10" guides="1" tooltips="1" connect="1" arrows="1" fold="1" page="1" pageScale="1" pageWidth="1654" pageHeight="1169" math="1" shadow="0">
      <root>
        <mxCell id="0" />
        <mxCell id="1" parent="0" />
        <mxCell id="XPwdelyP1bE8na_K3Qvz-2" value="" style="ellipse;whiteSpace=wrap;html=1;aspect=fixed;fillColor=none;" parent="1" vertex="1">
          <mxGeometry x="320" y="240" width="160" height="160" as="geometry" />
        </mxCell>
        <mxCell id="XPwdelyP1bE8na_K3Qvz-3" value="" style="endArrow=none;startArrow=classic;html=1;rounded=0;endFill=0;" parent="1" source="XPwdelyP1bE8na_K3Qvz-14" edge="1">
          <mxGeometry width="50" height="50" relative="1" as="geometry">
            <mxPoint x="120" y="320" as="sourcePoint" />
            <mxPoint x="400" y="320" as="targetPoint" />
          </mxGeometry>
        </mxCell>
        <mxCell id="XPwdelyP1bE8na_K3Qvz-4" value="`R_ttS=42164 tt{km}`" style="edgeLabel;html=1;align=center;verticalAlign=middle;resizable=0;points=[];" parent="XPwdelyP1bE8na_K3Qvz-3" vertex="1" connectable="0">
          <mxGeometry x="0.059" y="-1" relative="1" as="geometry">
            <mxPoint x="3" y="14" as="offset" />
          </mxGeometry>
        </mxCell>
        <mxCell id="XPwdelyP1bE8na_K3Qvz-8" value="" style="endArrow=none;startArrow=classic;html=1;rounded=0;exitX=0;exitY=1;exitDx=0;exitDy=0;endFill=0;" parent="1" source="XPwdelyP1bE8na_K3Qvz-2" edge="1">
          <mxGeometry width="50" height="50" relative="1" as="geometry">
            <mxPoint x="120" y="320" as="sourcePoint" />
            <mxPoint x="400" y="320" as="targetPoint" />
          </mxGeometry>
        </mxCell>
        <mxCell id="XPwdelyP1bE8na_K3Qvz-9" value="`R_ttE=6371 tt{km}`" style="edgeLabel;html=1;align=center;verticalAlign=middle;resizable=0;points=[];" parent="XPwdelyP1bE8na_K3Qvz-8" vertex="1" connectable="0">
          <mxGeometry x="0.059" y="-1" relative="1" as="geometry">
            <mxPoint as="offset" />
          </mxGeometry>
        </mxCell>
        <mxCell id="XPwdelyP1bE8na_K3Qvz-10" value="" style="shape=umlActor;verticalLabelPosition=bottom;verticalAlign=top;html=1;outlineConnect=0;rotation=-30;" parent="1" vertex="1">
          <mxGeometry x="354" y="230" width="10" height="20" as="geometry" />
        </mxCell>
        <mxCell id="XPwdelyP1bE8na_K3Qvz-11" value="" style="endArrow=none;html=1;rounded=0;entryX=0.275;entryY=0.063;entryDx=0;entryDy=0;entryPerimeter=0;" parent="1" target="XPwdelyP1bE8na_K3Qvz-2" edge="1">
          <mxGeometry width="50" height="50" relative="1" as="geometry">
            <mxPoint x="400" y="320" as="sourcePoint" />
            <mxPoint x="410" y="250" as="targetPoint" />
          </mxGeometry>
        </mxCell>
        <mxCell id="XPwdelyP1bE8na_K3Qvz-12" value="horizon" style="endArrow=none;html=1;rounded=0;" parent="1" edge="1">
          <mxGeometry x="-0.7647" width="50" height="50" relative="1" as="geometry">
            <mxPoint x="460" y="200" as="sourcePoint" />
            <mxPoint x="120" y="370" as="targetPoint" />
            <mxPoint as="offset" />
          </mxGeometry>
        </mxCell>
        <mxCell id="XPwdelyP1bE8na_K3Qvz-15" value="" style="endArrow=none;startArrow=classic;html=1;rounded=0;endFill=0;" parent="1" target="XPwdelyP1bE8na_K3Qvz-14" edge="1">
          <mxGeometry width="50" height="50" relative="1" as="geometry">
            <mxPoint x="120" y="320" as="sourcePoint" />
            <mxPoint x="400" y="320" as="targetPoint" />
          </mxGeometry>
        </mxCell>
        <mxCell id="XPwdelyP1bE8na_K3Qvz-14" value="" style="ellipse;whiteSpace=wrap;html=1;aspect=fixed;" parent="1" vertex="1">
          <mxGeometry x="110" y="315" width="10" height="10" as="geometry" />
        </mxCell>
        <mxCell id="XPwdelyP1bE8na_K3Qvz-17" value="" style="endArrow=none;html=1;rounded=0;entryX=1;entryY=0.5;entryDx=0;entryDy=0;" parent="1" target="XPwdelyP1bE8na_K3Qvz-14" edge="1">
          <mxGeometry width="50" height="50" relative="1" as="geometry">
            <mxPoint x="360" y="250" as="sourcePoint" />
            <mxPoint x="120" y="310" as="targetPoint" />
          </mxGeometry>
        </mxCell>
        <mxCell id="XPwdelyP1bE8na_K3Qvz-18" value="`angle_tt{e l e v}`" style="text;html=1;align=center;verticalAlign=middle;whiteSpace=wrap;rounded=0;" parent="1" vertex="1">
          <mxGeometry x="211" y="281" width="60" height="30" as="geometry" />
        </mxCell>
        <mxCell id="XPwdelyP1bE8na_K3Qvz-19" value="`angle_tt{latitude}`" style="text;html=1;align=center;verticalAlign=middle;whiteSpace=wrap;rounded=0;" parent="1" vertex="1">
          <mxGeometry x="332" y="292" width="60" height="30" as="geometry" />
        </mxCell>
        <mxCell id="XPwdelyP1bE8na_K3Qvz-20" value="GSS" style="text;html=1;align=center;verticalAlign=middle;whiteSpace=wrap;rounded=0;" parent="1" vertex="1">
          <mxGeometry x="60" y="305" width="60" height="30" as="geometry" />
        </mxCell>
        <mxCell id="XPwdelyP1bE8na_K3Qvz-21" value="earth station" style="text;html=1;align=center;verticalAlign=middle;whiteSpace=wrap;rounded=0;" parent="1" vertex="1">
          <mxGeometry x="320" y="198" width="60" height="30" as="geometry" />
        </mxCell>
        <mxCell id="XPwdelyP1bE8na_K3Qvz-23" value="`cdot`" style="text;html=1;align=center;verticalAlign=middle;whiteSpace=wrap;rounded=0;" parent="1" vertex="1">
          <mxGeometry x="356" y="249" width="11" height="10" as="geometry" />
        </mxCell>
        <mxCell id="XPwdelyP1bE8na_K3Qvz-26" value="" style="verticalLabelPosition=bottom;verticalAlign=top;html=1;shape=mxgraph.basic.pie;startAngle=0.42416785496852005;endAngle=0.6692927663914524;fillColor=none;" parent="1" vertex="1">
          <mxGeometry x="353" y="238" width="20" height="21" as="geometry" />
        </mxCell>
        <mxCell id="XPwdelyP1bE8na_K3Qvz-28" value="`S_tt{es}`" style="text;html=1;align=center;verticalAlign=middle;whiteSpace=wrap;rounded=0;" parent="1" vertex="1">
          <mxGeometry x="230" y="251" width="60" height="30" as="geometry" />
        </mxCell>
        <mxCell id="XPwdelyP1bE8na_K3Qvz-29" value="`S_tt{es}`" style="text;html=1;align=left;verticalAlign=middle;whiteSpace=wrap;rounded=0;" parent="1" vertex="1">
          <mxGeometry x="80" y="120" width="140" height="30" as="geometry" />
        </mxCell>
        <mxCell id="XPwdelyP1bE8na_K3Qvz-30" value="`d_tt{EM}=R_ttEtan(angle_tt{longitude})`" style="text;html=1;align=left;verticalAlign=middle;whiteSpace=wrap;rounded=0;" parent="1" vertex="1">
          <mxGeometry x="80" y="168" width="140" height="30" as="geometry" />
        </mxCell>
        <mxCell id="XPwdelyP1bE8na_K3Qvz-31" value="`M`" style="text;html=1;align=center;verticalAlign=middle;whiteSpace=wrap;rounded=0;" parent="1" vertex="1">
          <mxGeometry x="213" y="317" width="20" height="30" as="geometry" />
        </mxCell>
        <mxCell id="XPwdelyP1bE8na_K3Qvz-32" value="`E`" style="text;html=1;align=center;verticalAlign=middle;whiteSpace=wrap;rounded=0;" parent="1" vertex="1">
          <mxGeometry x="369" y="240" width="23" height="30" as="geometry" />
        </mxCell>
        <mxCell id="ayz5k2vRFkkvkly3F8NE-1" value="`S`" style="text;html=1;align=center;verticalAlign=middle;whiteSpace=wrap;rounded=0;" parent="1" vertex="1">
          <mxGeometry x="111" y="321" width="20" height="30" as="geometry" />
        </mxCell>
        <mxCell id="ayz5k2vRFkkvkly3F8NE-2" value="`Z`" style="text;html=1;align=center;verticalAlign=middle;whiteSpace=wrap;rounded=0;" parent="1" vertex="1">
          <mxGeometry x="397" y="314" width="20" height="30" as="geometry" />
        </mxCell>
        <mxCell id="ayz5k2vRFkkvkly3F8NE-3" value="Earth centre:&amp;nbsp;&lt;div&gt;`Z=((0),(0),(0))`&lt;/div&gt;" style="text;html=1;align=left;verticalAlign=middle;whiteSpace=wrap;rounded=0;" parent="1" vertex="1">
          <mxGeometry x="530" y="181" width="90" height="70" as="geometry" />
        </mxCell>
        <mxCell id="ayz5k2vRFkkvkly3F8NE-4" value="Satellite position: `S=((x_ttS),(y_ttS),(0))=R_ttS( (sin(angle_tt{longitude})), ( cos(angle_tt{longitude})) , (0))` and `sqrt(x_ttS^2+y_ttS^2)=R_ttS=42164tt{km}`" style="text;html=1;align=left;verticalAlign=middle;whiteSpace=wrap;rounded=0;" parent="1" vertex="1">
          <mxGeometry x="530" y="60" width="250" height="95" as="geometry" />
        </mxCell>
        <mxCell id="ayz5k2vRFkkvkly3F8NE-5" value="Observer on Earth:&lt;div&gt;`E=((0),(y_ttE),(z_ttE))=R_ttE( (0), ( cos(angle_tt{latitude}) ) , (sin(angle_tt{latitude})))` and `sqrt(y_ttE^2+z_ttE^2)=R_ttE=6371tt{km}`&lt;/div&gt;" style="text;html=1;align=left;verticalAlign=middle;whiteSpace=wrap;rounded=0;" parent="1" vertex="1">
          <mxGeometry x="269" y="60" width="250" height="100" as="geometry" />
        </mxCell>
        <mxCell id="ayz5k2vRFkkvkly3F8NE-6" value="`z`" style="endArrow=classic;html=1;rounded=0;" parent="1" edge="1">
          <mxGeometry x="0.5" y="10" width="50" height="50" relative="1" as="geometry">
            <mxPoint x="275" y="440" as="sourcePoint" />
            <mxPoint x="275" y="400" as="targetPoint" />
            <mxPoint as="offset" />
          </mxGeometry>
        </mxCell>
        <mxCell id="ayz5k2vRFkkvkly3F8NE-7" value="" style="endArrow=classic;html=1;rounded=0;" parent="1" source="ayz5k2vRFkkvkly3F8NE-10" edge="1">
          <mxGeometry width="50" height="50" relative="1" as="geometry">
            <mxPoint x="275" y="440" as="sourcePoint" />
            <mxPoint x="235" y="440" as="targetPoint" />
          </mxGeometry>
        </mxCell>
        <mxCell id="ayz5k2vRFkkvkly3F8NE-8" value="`y`" style="edgeLabel;html=1;align=center;verticalAlign=middle;resizable=0;points=[];" parent="ayz5k2vRFkkvkly3F8NE-7" vertex="1" connectable="0">
          <mxGeometry x="0.3333" relative="1" as="geometry">
            <mxPoint x="-13" y="-10" as="offset" />
          </mxGeometry>
        </mxCell>
        <mxCell id="ayz5k2vRFkkvkly3F8NE-11" value="" style="endArrow=classic;html=1;rounded=0;" parent="1" target="ayz5k2vRFkkvkly3F8NE-10" edge="1">
          <mxGeometry width="50" height="50" relative="1" as="geometry">
            <mxPoint x="275" y="440" as="sourcePoint" />
            <mxPoint x="235" y="440" as="targetPoint" />
          </mxGeometry>
        </mxCell>
        <mxCell id="ayz5k2vRFkkvkly3F8NE-10" value="" style="ellipse;whiteSpace=wrap;html=1;aspect=fixed;" parent="1" vertex="1">
          <mxGeometry x="269" y="434" width="11" height="11" as="geometry" />
        </mxCell>
        <mxCell id="ayz5k2vRFkkvkly3F8NE-13" value="" style="endArrow=none;html=1;rounded=0;exitX=0;exitY=1;exitDx=0;exitDy=0;entryX=1;entryY=0;entryDx=0;entryDy=0;" parent="1" source="ayz5k2vRFkkvkly3F8NE-10" target="ayz5k2vRFkkvkly3F8NE-10" edge="1">
          <mxGeometry width="50" height="50" relative="1" as="geometry">
            <mxPoint x="255" y="420" as="sourcePoint" />
            <mxPoint x="305" y="370" as="targetPoint" />
          </mxGeometry>
        </mxCell>
        <mxCell id="ayz5k2vRFkkvkly3F8NE-14" value="" style="endArrow=none;html=1;rounded=0;exitX=0;exitY=0;exitDx=0;exitDy=0;entryX=1;entryY=1;entryDx=0;entryDy=0;" parent="1" source="ayz5k2vRFkkvkly3F8NE-10" target="ayz5k2vRFkkvkly3F8NE-10" edge="1">
          <mxGeometry width="50" height="50" relative="1" as="geometry">
            <mxPoint x="255" y="420" as="sourcePoint" />
            <mxPoint x="305" y="370" as="targetPoint" />
          </mxGeometry>
        </mxCell>
        <mxCell id="ayz5k2vRFkkvkly3F8NE-15" value="`x`" style="text;html=1;align=center;verticalAlign=middle;whiteSpace=wrap;rounded=0;" parent="1" vertex="1">
          <mxGeometry x="275" y="445" width="15" height="10" as="geometry" />
        </mxCell>
        <mxCell id="ayz5k2vRFkkvkly3F8NE-16" value="`Z`" style="text;html=1;align=center;verticalAlign=middle;whiteSpace=wrap;rounded=0;" parent="1" vertex="1">
          <mxGeometry x="255" y="445" width="20" height="30" as="geometry" />
        </mxCell>
        <mxCell id="ayz5k2vRFkkvkly3F8NE-17" value="Observers Horizonplane on Earth:&lt;div&gt;`H_ttE = ((0),(y_ttE),(z_ttE)) cdot ( ((x),(y),(z))-((0),(y_ttE),(z_ttE)))=0`&lt;/div&gt;" style="text;html=1;align=left;verticalAlign=middle;whiteSpace=wrap;rounded=0;" parent="1" vertex="1">
          <mxGeometry x="519" y="270" width="250" height="65" as="geometry" />
        </mxCell>
        <mxCell id="ayz5k2vRFkkvkly3F8NE-19" value="Satellite over Observers Horizonplane on Earth:&lt;div&gt;`((0),(y_ttE),(z_ttE)) cdot ( ((rx_ttS),(ry_ttS),(0))-((0),(y_ttE),(z_ttE)))=0`&lt;/div&gt;&lt;div&gt;`0 = y_ttE (r y_ttS-y_ttE )+z_ttE (0 - z_ttE)`&lt;/div&gt;" style="text;html=1;align=left;verticalAlign=middle;whiteSpace=wrap;rounded=0;" parent="1" vertex="1">
          <mxGeometry x="519" y="365" width="250" height="125" as="geometry" />
        </mxCell>
        <mxCell id="ayz5k2vRFkkvkly3F8NE-20" value="`0=ry_ttEy_ttS-y_ttE^2-z_ttE^2`" style="text;html=1;align=left;verticalAlign=middle;whiteSpace=wrap;rounded=0;" parent="1" vertex="1">
          <mxGeometry x="519" y="475" width="161" height="30" as="geometry" />
        </mxCell>
        <mxCell id="ayz5k2vRFkkvkly3F8NE-21" value="`r={y_ttE^2+z_ttE^2}/{y_ttEy_ttS}`" style="text;html=1;align=left;verticalAlign=middle;whiteSpace=wrap;rounded=0;" parent="1" vertex="1">
          <mxGeometry x="519" y="510" width="121" height="30" as="geometry" />
        </mxCell>
        <mxCell id="ayz5k2vRFkkvkly3F8NE-22" value="`M={y_ttE^2+z_ttE^2}/{y_ttEy_ttS}((x_ttS),(y_ttS),(0))`" style="text;html=1;align=left;verticalAlign=middle;whiteSpace=wrap;rounded=0;" parent="1" vertex="1">
          <mxGeometry x="519" y="555" width="121" height="30" as="geometry" />
        </mxCell>
        <mxCell id="ayz5k2vRFkkvkly3F8NE-23" value="" style="endArrow=none;html=1;rounded=0;" parent="1" edge="1">
          <mxGeometry width="50" height="50" relative="1" as="geometry">
            <mxPoint x="80" y="515" as="sourcePoint" />
            <mxPoint x="240" y="515" as="targetPoint" />
          </mxGeometry>
        </mxCell>
        <mxCell id="ayz5k2vRFkkvkly3F8NE-24" value="" style="endArrow=none;html=1;rounded=0;" parent="1" edge="1">
          <mxGeometry width="50" height="50" relative="1" as="geometry">
            <mxPoint x="160" y="520" as="sourcePoint" />
            <mxPoint x="160" y="490" as="targetPoint" />
          </mxGeometry>
        </mxCell>
        <mxCell id="cT7QT-6giVLXbYLk1RBG-1" value="`M_ttA=((0),(R),())`" style="text;html=1;align=center;verticalAlign=middle;whiteSpace=wrap;rounded=0;" vertex="1" parent="1">
          <mxGeometry x="307" y="425" width="60" height="30" as="geometry" />
        </mxCell>
        <mxCell id="cT7QT-6giVLXbYLk1RBG-2" value="`r cdot n = d`" style="text;html=1;align=left;verticalAlign=middle;whiteSpace=wrap;rounded=0;" vertex="1" parent="1">
          <mxGeometry x="264" y="505" width="167" height="30" as="geometry" />
        </mxCell>
        <mxCell id="cT7QT-6giVLXbYLk1RBG-3" value="`((x),(y),(z))cdot((0),(y_ttE),(z_ttE))=R_ttE`" style="text;html=1;align=left;verticalAlign=middle;whiteSpace=wrap;rounded=0;" vertex="1" parent="1">
          <mxGeometry x="264" y="555" width="133" height="30" as="geometry" />
        </mxCell>
        <mxCell id="cT7QT-6giVLXbYLk1RBG-4" value="`(yy_ttE+zz_ttE)=R_ttE`&lt;div&gt;&lt;br&gt;&lt;div&gt;&lt;br&gt;&lt;/div&gt;&lt;/div&gt;" style="text;html=1;align=left;verticalAlign=middle;whiteSpace=wrap;rounded=0;" vertex="1" parent="1">
          <mxGeometry x="269" y="620" width="231" height="70" as="geometry" />
        </mxCell>
      </root>
    </mxGraphModel>
  </diagram>
</mxfile>
